# xmcd
#
# Track frame offsets: 
#        182
#        24522
#        52455
#        88220
#        139170
#        180170
#        221972
#        247015
#        296477
#
# Disc length: 4547 seconds
#
# Revision: 3
# Processed by: cddbd v1.5.2PL0 Copyright (c) Steve Scherf et al.
# Submitted via: ExactAudioCopy v0.99pb4
#
DISCID=8d11c109
DTITLE=Roy Eldridge and Dizzy Gillespie - Roy and Diz
DYEAR=1954
DGENRE=Jazz
TTITLE0=Sometimes I'm Happy
TTITLE1=Algo Bueno
TTITLE2=Trumpet Blues
TTITLE3=Ballad Medley
TTITLE4=Blue Moon
TTITLE5=I've Found A New Baby
TTITLE6=Pretty-Eyed Baby
TTITLE7=I Can't Get Started
TTITLE8=Limehouse Blues
EXTD=Roy Eldridge (T, Vcl]\nDizzy Gillespie (T, Vcl]\nOscar Peterson (
EXTD=P]\nRay Brown (B]\nHerb Ellis (G]\nLouis Bellson (D)
EXTT0=
EXTT1=
EXTT2=
EXTT3=I'm Thru With Love\nCan't We Be Friends\nDon't You Think\nI Don'
EXTT3=t Know Why (I Just Do]\nIf I Had You
EXTT4=
EXTT5=
EXTT6=
EXTT7=
EXTT8=
PLAYORDER=
